<?xml version="1.0" standalone="no"?><!DOCTYPE svg PUBLIC "-//W3C//DTD SVG 1.1//EN" "http://www.w3.org/Graphics/SVG/1.1/DTD/svg11.dtd"><svg t="1526891633694" class="icon" style="" viewBox="0 0 1024 1024" version="1.1" xmlns="http://www.w3.org/2000/svg" p-id="2016" xmlns:xlink="http://www.w3.org/1999/xlink" width="32" height="32"><defs><style type="text/css"></style></defs><path d="M725.376 1024H298.688A138.88 138.88 0 0 1 160 885.312V138.624C160 62.144 222.208 0 298.688 0h426.688C801.792 0 864 62.144 864 138.624v746.688A138.88 138.88 0 0 1 725.376 1024zM298.688 64C257.472 64 224 97.472 224 138.624v746.688c0 41.216 33.472 74.688 74.688 74.688h426.688c41.152 0 74.624-33.472 74.624-74.688V138.624C800 97.472 766.528 64 725.376 64H298.688z" p-id="2017"></path><path d="M653.184 375.232H370.88a32 32 0 0 1 0-64h282.304a32 32 0 0 1 0 64zM653.184 518.08H370.88a32 32 0 0 1 0-64h282.304a32 32 0 0 1 0 64zM822.592 838.72H201.408a32 32 0 0 1 0-64h621.12a32 32 0 0 1 0.064 64z" p-id="2018"></path></svg>
