<?xml version="1.0" standalone="no"?><!DOCTYPE svg PUBLIC "-//W3C//DTD SVG 1.1//EN" "http://www.w3.org/Graphics/SVG/1.1/DTD/svg11.dtd"><svg t="1526979351578" class="icon" style="" viewBox="0 0 1024 1024" version="1.1" xmlns="http://www.w3.org/2000/svg" p-id="3491" xmlns:xlink="http://www.w3.org/1999/xlink" width="32" height="32"><defs><style type="text/css"></style></defs><path d="M335.917056 74.906624l410.533888 400.006144c14.860288 14.861312 12.384256 35.294208-3.095552 50.156544-14.860288 14.860288-37.772288 16.717824-52.632576 1.857536L281.42592 128.156672c-14.860288-14.860288-14.860288-38.390784 0-52.632576 14.862336-14.860288 39.629824-14.860288 54.491136-0.617472z"  p-id="3492"></path><path d="M746.450944 523.830272l-414.24896 424.774656c-14.862336 14.862336-35.296256 12.384256-50.156544-3.095552-14.860288-15.479808-16.717824-37.77024-1.857536-52.632576l398.769152-409.294848c14.860288-14.862336 50.154496-26.626048 64.397312-11.76576 14.860288 15.480832 17.956864 37.152768 3.096576 52.01408z"  p-id="3493"></path></svg>
