<?xml version="1.0" standalone="no"?><!DOCTYPE svg PUBLIC "-//W3C//DTD SVG 1.1//EN" "http://www.w3.org/Graphics/SVG/1.1/DTD/svg11.dtd"><svg t="1526918745314" class="icon" style="" viewBox="0 0 1024 1024" version="1.1" xmlns="http://www.w3.org/2000/svg" p-id="46844" xmlns:xlink="http://www.w3.org/1999/xlink" width="32" height="32"><defs><style type="text/css"></style></defs><path d="M697.854 628.787H325.769c-43.695 0-76.645 28.541-76.645 66.385 0 37.842 32.953 66.384 76.648 66.384h372.086c43.695 0 76.645-28.541 76.645-66.384s-32.953-66.385-76.649-66.385z m0 97.31H325.772c-18.254 0-37.898-9.678-37.898-30.922 0-21.249 19.645-30.929 37.898-30.929H697.854c18.254 0 37.898 9.678 37.898 30.922 0.001 21.248-19.644 30.929-37.898 30.929z" p-id="46845"></path><path d="M853.644 468.012c-10.703 0-19.375 8.672-19.375 19.375v13.447h-0.004v279.078c0 29.969-24.383 54.352-54.353 54.352H246.127c-29.969 0-54.352-24.383-54.352-54.352V246.101c0-29.968 24.383-54.352 54.352-54.352h418.848v0.004h47.637c10.703 0 19.375-8.671 19.375-19.371 0-10.703-8.672-19.375-19.375-19.375h-8.02V153H246.127c-51.336 0-93.102 41.765-93.102 93.101v533.81c0 51.337 41.766 93.102 93.102 93.102h533.785c51.336 0 93.103-41.765 93.103-93.102V487.386c0-10.702-8.671-19.374-19.371-19.374z"  p-id="46846"></path><path d="M729.697 310.641c-28.719 0-52.078 23.359-52.078 52.078a51.793 51.793 0 0 0 3.867 19.669L573.867 489.874 401.01 397.339a21.05 21.05 0 0 0-25.583 4.476L258.74 531.362c-7.784 8.643-7.092 21.958 1.551 29.743 8.642 7.783 21.958 7.087 29.742-1.556l105.645-117.286 172.09 92.121a20.983 20.983 0 0 0 12.136 2.377 21.008 21.008 0 0 0 12.68-6.045L711.81 411.635a51.846 51.846 0 0 0 17.889 3.165c28.723 0 52.082-23.36 52.082-52.082-0.002-28.718-23.361-52.077-52.084-52.077z m0 80.238c-15.52 0-28.156-12.641-28.156-28.16 0-15.52 12.637-28.16 28.156-28.16 15.523 0 28.16 12.64 28.16 28.16 0 15.519-12.636 28.16-28.16 28.16z"  p-id="46847"></path></svg>
