<?xml version="1.0" standalone="no"?><!DOCTYPE svg PUBLIC "-//W3C//DTD SVG 1.1//EN" "http://www.w3.org/Graphics/SVG/1.1/DTD/svg11.dtd"><svg t="1527968207913" class="icon" style="" viewBox="0 0 1024 1024" version="1.1" xmlns="http://www.w3.org/2000/svg" p-id="2613" xmlns:xlink="http://www.w3.org/1999/xlink" width="32" height="32"><defs><style type="text/css"></style></defs><path d="M329.728 552.46848a40.5248 40.5248 0 0 1-28.672-11.84256c-15.79008-15.7952-15.79008-41.45664 0-57.24672l364.63104-364.6208c15.79008-15.79008 41.45152-15.79008 57.25184 0 15.79008 15.79008 15.79008 41.45152 0 57.2416l-364.63616 364.63104a40.31488 40.31488 0 0 1-28.57472 11.83744z m0 0"  p-id="2614"></path><path d="M694.26176 917.08928a40.4992 40.4992 0 0 1-28.66176-11.83744L301.06112 540.6208c-15.79008-15.7952-15.79008-41.45664 0-57.24672 15.79008-15.7952 41.46176-15.7952 57.24672 0l364.63616 364.62592a40.51968 40.51968 0 0 1 0 57.25184 40.3712 40.3712 0 0 1-28.68224 11.83744z m0 0" p-id="2615"></path></svg>
