<?xml version="1.0" standalone="no"?><!DOCTYPE svg PUBLIC "-//W3C//DTD SVG 1.1//EN" "http://www.w3.org/Graphics/SVG/1.1/DTD/svg11.dtd"><svg t="1528719639503" class="icon" style="" viewBox="0 0 5388 1024" version="1.1" xmlns="http://www.w3.org/2000/svg" p-id="3498" xmlns:xlink="http://www.w3.org/1999/xlink" width="168.375" height="32"><defs><style type="text/css"></style></defs><path d="M3123.712 199.68v-33.792c0-3.072-2.56-5.632-5.632-5.632h-76.8c-3.072 0-5.632 2.56-5.632 5.632V199.68c0 12.8-10.752 23.552-24.064 23.552h-78.336c-3.072 0-5.632-2.56-5.632-5.632V165.888c0-3.072-2.56-5.632-5.632-5.632h-76.8c-3.072 0-5.632 2.56-5.632 5.632v51.712c0 3.072-2.56 5.632-5.632 5.632h-193.536c-3.072 0-5.632 2.56-5.632 5.632v75.264c0 3.072 2.56 5.632 5.632 5.632h193.536c3.072 0 5.632 2.56 5.632 5.632v426.496c0 8.192-6.656 14.848-14.848 14.848h-40.448c-3.072 0-5.632 2.56-5.632 5.632v75.264c0 3.072 2.56 5.632 5.632 5.632h40.448c56.832 0 102.912-45.056 102.912-101.376V315.392c0-3.072 2.56-5.632 5.632-5.632h78.336c61.952 0 112.128-49.152 112.128-110.08z" p-id="3499"></path><path d="M3252.224 160.768h-61.952c-3.072 0-5.632 2.56-5.632 5.632v75.264c0 3.072 2.56 5.632 5.632 5.632h61.952c29.184 0 54.272 17.408 65.024 42.496 2.048 4.096 0.512 9.216-3.072 11.776L3189.76 392.192c-3.072 2.048-4.608 5.632-4.608 9.216v90.624c0 3.584 4.096 5.632 7.168 3.584l123.392-89.6c3.072-2.048 7.68 0 7.68 3.584v58.88c0 4.096-2.048 7.68-5.12 9.728L3189.76 571.904c-3.072 2.048-4.608 5.632-4.608 9.216v90.624c0 3.584 4.096 5.632 7.168 3.584l123.392-89.6c3.072-2.048 7.68 0 7.68 3.584v61.44c0 58.368-48.128 105.984-107.52 105.984h-75.776c-9.728 0-18.432-6.144-21.504-15.872l-54.784-178.176c-3.072-9.728-3.072-20.48-0.512-30.208l42.496-148.992c0.512-2.56-1.024-5.12-4.096-5.12h-78.848c-4.096 0-7.68 2.56-8.704 6.656l-42.496 148.48c-3.072 9.728-2.56 20.48 0.512 30.208l62.464 202.24c14.336 46.08 56.832 77.312 105.472 77.312h76.8c107.52-0.512 195.072-86.528 195.072-192.512V316.416c-1.536-86.016-72.192-155.648-159.744-155.648zM4710.4 299.52h123.392c3.072 0 5.632 2.56 5.632 5.632v61.952c0 3.072 2.56 5.632 5.632 5.632h76.8c3.072 0 5.632-2.56 5.632-5.632V305.152c0-3.072 2.56-5.632 5.632-5.632h214.016c3.072 0 5.632 2.56 5.632 5.632v61.952c0 3.072 2.56 5.632 5.632 5.632h76.8c3.072 0 5.632-2.56 5.632-5.632V305.152c0-3.072 2.56-5.632 5.632-5.632h114.688c3.072 0 5.632-2.56 5.632-5.632V218.624c0-3.072-2.56-5.632-5.632-5.632h-114.688c-3.072 0-5.632-2.56-5.632-5.632v-41.472c0-3.072-2.56-5.632-5.632-5.632h-76.8c-3.072 0-5.632 2.56-5.632 5.632v41.472c0 3.072-2.56 5.632-5.632 5.632h-214.016c-3.072 0-5.632-2.56-5.632-5.632v-41.472c0-3.072-2.56-5.632-5.632-5.632h-76.8c-3.072 0-5.632 2.56-5.632 5.632v41.472c0 3.072-2.56 5.632-5.632 5.632H4710.4c-3.072 0-5.632 2.56-5.632 5.632v75.264c0 3.072 2.56 5.632 5.632 5.632zM5272.064 422.4H4710.4c-3.072 0-5.632 2.56-5.632 5.632v75.264c0 3.072 2.56 5.632 5.632 5.632h189.952c3.072 0 5.632 2.56 5.632 5.632v322.56c0 3.072 2.56 5.632 5.632 5.632h76.8c3.072 0 5.632-2.56 5.632-5.632v-322.56c0-3.072 2.56-5.632 5.632-5.632h272.896c3.584 0 6.656 3.072 6.656 6.656v181.76c0 3.584-3.072 6.656-6.656 6.656h-96.768c-3.072 0-5.632 2.56-5.632 5.632v75.264c0 3.072 2.56 5.632 5.632 5.632h96.768c52.224 0 94.72-41.984 94.72-93.184v-181.76c0-51.2-42.496-93.184-95.232-93.184zM2796.032 532.992l-42.496-148.48c-1.024-3.584-4.608-6.656-8.704-6.656h-78.848c-3.072 0-4.608 2.56-4.096 5.12l42.496 148.992c3.072 9.728 2.56 20.48-0.512 30.208l-54.784 178.176c-3.072 9.216-11.264 15.872-21.504 15.872h-39.424c-3.072 0-5.632-2.56-5.632-5.632V510.976c0-3.072 2.56-5.632 5.632-5.632h45.056c3.072 0 5.632-2.56 5.632-5.632V424.448c0-3.072-2.56-5.632-5.632-5.632h-45.056c-3.072 0-5.632-2.56-5.632-5.632V288.256c0-60.928-50.176-110.08-112.128-110.08H2396.16c-3.072 0-5.632 2.56-5.632 5.632v75.264c0 3.072 2.56 5.632 5.632 5.632h74.24c13.312 0 24.064 10.752 24.064 23.552v125.44c0 3.072-2.56 5.632-5.632 5.632h-92.16c-3.072 0-5.632 2.56-5.632 5.632v75.264c0 3.072 2.56 5.632 5.632 5.632h92.16c3.072 0 5.632 2.56 5.632 5.632v239.616c0 3.072-2.56 5.632-5.632 5.632h-92.16c-3.072 0-5.632 2.56-5.632 5.632v75.264c0 3.072 2.56 5.632 5.632 5.632h230.912c49.152 0 91.648-31.232 105.472-77.312L2795.52 563.2c3.072-9.728 3.072-20.48 0.512-30.208zM4749.312 756.224h-123.904c-27.136 0-51.712-15.872-62.976-39.936L4449.28 471.552c-8.192-17.92-26.112-29.696-46.592-30.208-19.968-0.512-38.4 10.24-47.616 28.16l-135.168 261.632-90.624-195.584 108.544-211.456c15.36-30.208 14.336-65.536-3.072-94.72-18.432-30.72-52.736-49.152-89.088-49.152H3952.64c-3.072 0-5.632 2.56-5.632 5.632V261.12c0 3.072 2.56 5.632 5.632 5.632h195.584c6.144 0 9.216 3.584 10.752 6.144 1.536 2.048 3.072 6.656 0.512 12.288l-76.8 149.504-30.72-66.048c-1.024-2.56-3.584-4.096-6.656-4.096h-87.04c-2.048 0-3.584 2.048-2.56 4.096l76.288 164.864-93.184 181.76c-11.776 23.04-35.84 37.376-61.952 37.376h-163.84c-3.072 0-5.632-2.56-5.632-5.632v-205.312c0-3.072 2.56-5.632 5.632-5.632h145.92c3.072 0 5.632-2.56 5.632-5.632V455.68c0-3.072-2.56-5.632-5.632-5.632h-145.92c-3.072 0-5.632-2.56-5.632-5.632V272.896c0-3.072 2.56-5.632 5.632-5.632h169.984c3.072 0 5.632-2.56 5.632-5.632V186.368c0-3.072-2.56-5.632-5.632-5.632h-439.296c-3.072 0-5.632 2.56-5.632 5.632v75.264c0 3.072 2.56 5.632 5.632 5.632h169.984c3.072 0 5.632 2.56 5.632 5.632v172.032c0 3.072-2.56 5.632-5.632 5.632h-145.92c-3.072 0-5.632 2.56-5.632 5.632v75.264c0 3.072 2.56 5.632 5.632 5.632h145.92c3.072 0 5.632 2.56 5.632 5.632v204.8c0 3.072-2.56 5.632-5.632 5.632h-169.984c-3.072 0-5.632 2.56-5.632 5.632v75.264c0 3.072 2.56 5.632 5.632 5.632H3888.64v-0.512c54.784-4.096 103.424-35.328 129.024-84.48l61.44-119.808 76.288 164.352c11.264 24.576 35.328 39.936 62.976 40.96 27.648 0.512 52.224-13.824 64.512-37.888l117.248-227.84 82.432 178.176c25.6 55.296 81.408 90.624 143.36 90.624h123.904c3.072 0 5.632-2.56 5.632-5.632v-75.264c-0.512-3.584-3.072-6.144-6.144-6.144z" p-id="3500"></path><path d="M4362.752 333.312h197.632l-62.976 120.832c-1.024 2.56-1.536 5.12 0 7.68l40.96 89.088c1.536 3.072 6.144 3.584 7.68 0l100.352-193.024c12.288-24.064 11.264-51.712-3.072-74.752-14.336-23.552-40.96-36.864-68.608-36.864h-197.632l39.936-78.336c2.048-3.584-1.024-8.192-5.12-8.192H4326.4c-2.048 0-4.096 1.024-5.12 3.072l-30.208 58.368c-12.288 24.064-11.264 51.712 3.072 74.752 14.848 23.552 40.96 37.376 68.608 37.376zM2327.04 368.128L2085.376 184.32c-57.856-44.032-139.264-44.032-197.12 0l-241.664 183.808c-2.56 2.048-4.096 5.12-4.096 8.192v93.184c0 4.608 5.12 7.168 9.216 4.608l82.432-62.464v37.376c0 3.072 2.56 5.632 5.632 5.632h197.632c3.072 0 5.632 2.56 5.632 5.632v95.744c0 3.072-2.56 5.632-5.632 5.632h-197.632c-3.072 0-5.632 2.56-5.632 5.632v75.264c0 3.072 2.56 5.632 5.632 5.632h197.632c3.072 0 5.632 2.56 5.632 5.632v98.304c0 3.072-2.56 5.632-5.632 5.632h-289.28c-3.072 0-5.632 2.56-5.632 5.632v75.264c0 3.072 2.56 5.632 5.632 5.632h677.888c3.072 0 5.632-2.56 5.632-5.632v-75.264c0-3.072-2.56-5.632-5.632-5.632h-289.28c-3.072 0-5.632-2.56-5.632-5.632v-98.304c0-3.072 2.56-5.632 5.632-5.632h197.632c3.072 0 5.632-2.56 5.632-5.632v-75.264c0-3.072-2.56-5.632-5.632-5.632h-197.632c-3.072 0-5.632-2.56-5.632-5.632V459.264c0-3.072 2.56-5.632 5.632-5.632h197.632c3.072 0 5.632-2.56 5.632-5.632v-37.376l82.944 62.976c3.584 2.56 9.216 0 9.216-4.608V376.32c-1.024-3.584-2.56-6.656-5.12-8.192z m-536.064-1.024l150.528-114.688c26.624-19.968 63.488-19.968 89.6 0l150.528 114.688h-390.656zM1001.984 166.912h51.2c9.728 0 18.944-7.68 20.48-17.408l8.192-50.176c1.536-9.728-5.12-17.408-14.848-17.408h-51.2c-9.728 0-18.944 7.68-20.48 17.408l-8.192 50.176c-1.536 9.728 5.12 17.408 14.848 17.408zM990.208 263.68h40.96c11.776 0 23.04-9.216 25.088-20.992l6.656-39.936c2.048-11.776-6.144-20.992-17.92-20.992h-40.96c-11.776 0-23.04 9.216-25.088 20.992l-6.656 39.936c-2.048 11.776 6.144 20.992 17.92 20.992zM935.936 242.688l6.656-39.936c2.048-11.776-6.144-20.992-17.92-20.992h-40.96c-11.776 0-23.04 9.216-25.088 20.992l-6.656 39.936c-2.048 11.776 6.144 20.992 17.92 20.992h40.96c12.288 0 23.552-9.216 25.088-20.992zM977.408 360.448h32.256c13.312 0 26.112-10.752 28.16-24.064l5.12-31.744c2.048-13.312-7.168-24.064-20.48-24.064h-32.256c-13.312 0-26.112 10.752-28.16 24.064l-5.12 31.744c-2.048 13.824 7.168 24.064 20.48 24.064zM1001.472 380.416h-25.088c-14.848 0-28.16 11.776-30.72 26.112l-4.096 25.088c-2.56 14.336 7.68 26.112 22.016 26.112h25.088c14.848 0 28.16-11.776 30.72-26.112l4.096-25.088c2.56-14.336-7.168-26.112-22.016-26.112zM980.48 480.256H962.56c-15.872 0-30.72 12.8-33.28 28.16l-3.072 17.408c-2.56 15.872 8.192 28.16 24.064 28.16h17.92c15.872 0 30.72-12.8 33.28-28.16l3.072-17.408c3.072-15.36-8.192-28.16-24.064-28.16zM962.56 579.584h-16.896c-15.36 0-30.208 12.288-32.256 27.648l-2.56 16.384c-2.56 15.36 8.192 27.648 23.552 27.648h16.896c15.36 0 30.208-12.288 32.256-27.648l2.56-16.384c2.56-15.36-7.68-27.648-23.552-27.648zM942.08 679.424h-10.24c-16.384 0-32.256 13.312-34.816 29.696l-1.536 9.728c-2.56 16.384 8.704 29.696 25.088 29.696h10.24c16.384 0 32.256-13.312 34.816-29.696l1.536-9.728c2.56-16.384-8.704-29.696-25.088-29.696zM919.552 778.752c-18.432 0-36.352 14.848-38.912 33.28-3.072 18.432 9.728 33.28 28.16 33.28s36.352-14.848 38.912-33.28c3.072-18.432-9.728-33.28-28.16-33.28zM1188.864 81.92h-51.2c-9.728 0-18.944 7.68-20.48 17.408l-8.192 50.176c-1.536 9.728 5.12 17.408 14.848 17.408h51.2c9.728 0 18.944-7.68 20.48-17.408l8.192-50.176c1.536-9.728-5.12-17.408-14.848-17.408zM1169.408 181.248h-40.96c-11.776 0-23.04 9.216-25.088 20.992l-6.656 39.936c-2.048 11.776 6.144 20.992 17.92 20.992h40.96c11.776 0 23.04-9.216 25.088-20.992l6.656-39.936c2.048-11.264-6.144-20.992-17.92-20.992zM1150.464 281.088h-32.256c-13.312 0-26.112 10.752-28.16 24.064l-5.12 31.744c-2.048 13.312 7.168 24.064 20.48 24.064h32.256c13.312 0 26.112-10.752 28.16-24.064l5.12-31.744c2.048-13.312-7.168-24.064-20.48-24.064zM1132.032 380.416h-25.088c-14.848 0-28.16 11.776-30.72 26.112l-4.096 25.088c-2.56 14.336 7.68 26.112 22.016 26.112h25.088c14.848 0 28.16-11.776 30.72-26.112l4.096-25.088c2.56-14.336-7.168-26.112-22.016-26.112zM1113.6 480.256H1095.68c-15.872 0-30.72 12.8-33.28 28.16l-3.072 17.408c-2.56 15.872 8.192 28.16 24.064 28.16h17.92c15.872 0 30.72-12.8 33.28-28.16l3.072-17.408c3.072-15.36-8.192-28.16-24.064-28.16zM1098.752 579.584h-16.896c-15.36 0-30.208 12.288-32.256 27.648l-2.56 16.384c-2.56 15.36 8.192 27.648 23.552 27.648h16.896c15.36 0 30.208-12.288 32.256-27.648l2.56-16.384c2.048-15.36-8.192-27.648-23.552-27.648zM1080.32 679.424h-10.24c-16.384 0-32.256 13.312-34.816 29.696l-1.536 9.728c-2.56 16.384 8.704 29.696 25.088 29.696h10.24c16.384 0 32.256-13.312 34.816-29.696l1.536-9.728c3.072-16.384-8.192-29.696-25.088-29.696zM1060.864 778.752c-18.432 0-36.352 14.848-38.912 33.28-3.072 18.432 9.728 33.28 28.16 33.28s36.352-14.848 38.912-33.28c3.072-18.432-9.728-33.28-28.16-33.28zM1374.208 266.24h51.2c9.728 0 18.944-7.68 20.48-17.408l8.192-50.176c1.536-9.728-5.12-17.408-14.848-17.408h-51.2c-9.728 0-18.944 7.68-20.48 17.408l-8.192 50.176c-1.536 9.728 5.12 17.408 14.848 17.408zM1362.432 363.52h40.96c11.776 0 23.04-9.216 25.088-20.992l6.656-39.936c2.048-11.776-6.144-20.992-17.92-20.992h-40.96c-11.776 0-23.04 9.216-25.088 20.992l-6.656 39.936c-2.048 11.264 6.144 20.992 17.92 20.992zM1308.16 342.016l6.656-39.936c2.048-11.776-6.144-20.992-17.92-20.992h-40.96c-11.776 0-23.04 9.216-25.088 20.992l-6.656 39.936c-2.048 11.776 6.144 20.992 17.92 20.992h40.96c12.288 0.512 23.552-9.216 25.088-20.992zM1349.632 460.288h32.256c13.312 0 26.112-10.752 28.16-24.064l5.12-31.744c2.048-13.312-7.168-24.064-20.48-24.064h-32.256c-13.312 0-26.112 10.752-28.16 24.064l-5.12 31.744c-2.048 13.312 7.168 24.064 20.48 24.064zM1374.208 480.256h-25.088c-14.848 0-28.16 11.776-30.72 26.112l-4.096 25.088c-2.56 14.336 7.68 26.112 22.016 26.112h25.6c14.848 0 28.16-11.776 30.72-26.112l4.096-25.088c2.048-14.336-8.192-26.112-22.528-26.112zM1352.704 579.584h-17.92c-15.872 0-30.72 12.8-33.28 28.16l-3.072 17.408c-2.56 15.872 8.192 28.16 24.064 28.16h17.92c15.872 0 30.72-12.8 33.28-28.16l3.072-17.408c3.072-15.36-8.192-28.16-24.064-28.16zM1334.784 679.424h-16.896c-15.36 0-30.208 12.288-32.256 27.648l-2.56 16.384c-2.56 15.36 8.192 27.648 23.552 27.648h16.896c15.36 0 30.208-12.288 32.256-27.648l2.56-16.384c2.56-15.36-7.68-27.648-23.552-27.648zM1314.304 778.752h-10.24c-16.384 0-32.256 13.312-34.816 29.696l-1.536 9.728c-2.56 16.384 8.704 29.696 25.088 29.696h10.24c16.384 0 32.256-13.312 34.816-29.696l1.536-9.728c2.56-16.384-8.704-29.696-25.088-29.696zM1291.776 878.592c-18.432 0-36.352 14.848-38.912 33.28-3.072 18.432 9.728 33.28 28.16 33.28s36.352-14.848 38.912-33.28c3.072-18.432-9.728-33.28-28.16-33.28zM1561.088 181.248h-51.2c-9.728 0-18.944 7.68-20.48 17.408l-8.192 50.176c-1.536 9.728 5.12 17.408 14.848 17.408h51.2c9.728 0 18.944-7.68 20.48-17.408l8.192-50.176c2.048-9.216-4.608-17.408-14.848-17.408zM1541.632 281.088h-40.96c-11.776 0-23.04 9.216-25.088 20.992l-6.656 39.936c-2.048 11.776 6.144 20.992 17.92 20.992h40.96c11.776 0 23.04-9.216 25.088-20.992l6.656-39.936c2.048-11.776-6.144-20.992-17.92-20.992zM1522.688 380.416h-32.256c-13.312 0-26.112 10.752-28.16 24.064l-5.12 31.744c-2.048 13.312 7.168 24.064 20.48 24.064h32.256c13.312 0 26.112-10.752 28.16-24.064l5.12-31.744c2.048-13.312-7.168-24.064-20.48-24.064zM1504.256 480.256h-25.088c-14.848 0-28.16 11.776-30.72 26.112l-4.096 25.088c-2.56 14.336 7.68 26.112 22.016 26.112h25.088c14.848 0 28.16-11.776 30.72-26.112l4.096-25.088c2.56-14.336-7.168-26.112-22.016-26.112zM1485.824 579.584h-17.92c-15.872 0-30.72 12.8-33.28 28.16l-3.072 17.408c-2.56 15.872 8.192 28.16 24.064 28.16h17.92c15.872 0 30.72-12.8 33.28-28.16l3.072-17.408c3.072-15.36-7.68-28.16-24.064-28.16zM1470.976 679.424H1454.08c-15.36 0-30.208 12.288-32.256 27.648l-2.56 16.384c-2.56 15.36 8.192 27.648 23.552 27.648h16.896c15.36 0 30.208-12.288 32.256-27.648l2.56-16.384c2.56-15.36-8.192-27.648-23.552-27.648zM1452.544 778.752h-10.24c-16.384 0-32.256 13.312-34.816 29.696l-1.536 9.728c-2.56 16.384 8.704 29.696 25.088 29.696h10.24c16.384 0 32.256-13.312 34.816-29.696l1.536-9.728c3.072-16.384-8.192-29.696-25.088-29.696zM1433.088 878.592c-18.432 0-36.352 14.848-38.912 33.28-3.072 18.432 9.728 33.28 28.16 33.28s36.352-14.848 38.912-33.28c3.072-18.432-9.728-33.28-28.16-33.28zM630.272 517.632c-1.024-1.536-1.024-3.584 0-5.12l123.392-240.128c12.288-24.064 12.288-53.248-2.56-76.288-14.336-22.528-38.912-35.84-66.048-35.84H445.44c-3.072 0-5.632 2.56-5.632 5.632v75.264c0 3.072 2.56 5.632 5.632 5.632h213.504c4.096 0 7.168 4.608 5.12 8.192l-82.432 160.768c-2.048 4.096-7.68 4.096-10.24 0l-39.936-69.632c-1.536-2.56-4.608-4.608-7.68-4.608H437.248c-4.096 0-7.168 4.608-5.12 8.192l95.232 164.864c1.024 1.536 1.024 3.584 0 5.12l-129.024 251.392c-2.048 4.096-7.68 4.096-10.24 0l-126.464-219.136c-1.024-1.536-1.024-3.584 0-5.12l140.8-274.432c12.288-24.064 12.288-53.248-2.56-76.288-14.336-22.528-38.912-35.84-66.048-35.84h-291.84c-3.072 0-5.632 2.56-5.632 5.632v75.264c0 3.072 2.56 5.632 5.632 5.632h266.752c4.096 0 7.168 4.608 5.12 8.192L213.504 450.048c-2.048 4.096-7.68 4.096-10.24 0L143.36 346.112c-1.536-2.56-4.608-4.608-7.68-4.608H49.152c-4.096 0-7.168 4.608-5.12 8.192l115.2 199.68c1.024 1.536 1.024 3.584 0 5.12L16.384 833.024c-2.048 3.584 1.024 8.192 5.12 8.192h83.968c3.584 0 6.656-2.048 8.192-5.12l94.72-184.32c2.048-4.096 7.68-4.096 10.24 0l106.496 185.344c1.536 2.56 4.608 4.608 7.68 4.608h122.88c3.584 0 6.656-2.048 8.192-5.12l112.64-219.136c2.048-4.096 7.68-4.096 10.24 0l126.464 219.648c1.536 2.56 4.608 4.608 7.68 4.608h86.016c4.096 0 7.168-4.608 5.12-8.192l-181.76-315.904z" p-id="3501"></path></svg>