<?xml version="1.0" standalone="no"?><!DOCTYPE svg PUBLIC "-//W3C//DTD SVG 1.1//EN" "http://www.w3.org/Graphics/SVG/1.1/DTD/svg11.dtd"><svg t="1526906265541" class="icon" style="" viewBox="0 0 1024 1024" version="1.1" xmlns="http://www.w3.org/2000/svg" p-id="37171" xmlns:xlink="http://www.w3.org/1999/xlink" width="32" height="32"><defs><style type="text/css"></style></defs><path d="M509.292567 1014.407111c-67.34637 0-132.684524-13.19162-194.199344-39.211023-59.411072-25.129121-112.764975-61.100168-158.578922-106.914115-45.814963-45.814963-81.786011-99.168866-106.914115-158.578922-26.018387-61.51482-39.211023-126.852974-39.211023-194.199344S23.581799 382.819182 49.600186 321.304362c25.129121-59.411072 61.100168-112.764975 106.914115-158.578922s99.168866-81.786011 158.578922-106.914115C376.608043 29.791922 441.946197 16.599286 509.292567 16.599286c67.347386 0 132.684524 13.192636 194.199344 39.211023 59.411072 25.129121 112.763959 61.100168 158.578922 106.914115s81.786011 99.168866 106.914115 158.578922c26.019403 61.51482 39.211023 126.852974 39.211023 194.199344s-13.19162 132.684524-39.211023 194.199344c-25.129121 59.410056-61.099152 112.763959-106.914115 158.578922-45.814963 45.813947-99.16785 81.786011-158.578922 106.914115C641.976075 1001.215491 576.638937 1014.407111 509.292567 1014.407111zM509.292567 39.974267c-262.207328 0-475.528423 213.321095-475.528423 475.528423s213.321095 475.52944 475.528423 475.52944 475.528423-213.321095 475.528423-475.52944S771.499895 39.974267 509.292567 39.974267z" p-id="37172"></path><path d="M747.456186 516.125684l-0.247978-299.485342c0.576244-2.671862 0.130087-5.563246-1.49295-8.026765-2.041754-3.098709-5.436208-4.751219-8.889607-4.727844-0.059962-0.001016-0.114842-0.017277-0.174804-0.017277-2.644422 0.002033-5.031719 1.011222-6.881391 2.621047L479.156119 371.607322c-3.296889 2.171841-4.929072 5.876267-4.671947 9.552237-0.002033 0.015245-0.00813 0.029473-0.010163 0.045734-0.638239 5.789881 3.537753 11.001486 9.327634 11.639724l76.558145 14.56363L444.731885 656.660137l-58.263665-53.400653c-1.96045-1.533602-4.292866-2.216558-6.601908-2.192167-4.215627-0.26932-8.35808 2.001102-10.242307 6.063267l-98.39241 205.049401c-0.057929 0.126022-0.080288 0.257125-0.133136 0.383146-0.152446 0.365869-0.276435 0.735804-0.386195 1.112852-0.088418 0.301842-0.172772 0.600635-0.232734 0.90451-0.070125 0.35469-0.109761 0.708364-0.143299 1.067119-0.030489 0.32725-0.057929 0.650434-0.057929 0.975651 0 0.351641 0.030489 0.698201 0.06606 1.048825 0.032522 0.319119 0.065043 0.63519 0.126022 0.949228 0.069109 0.357739 0.169723 0.704298 0.275418 1.053907 0.089435 0.294728 0.177853 0.585391 0.292695 0.870972 0.136185 0.340462 0.302858 0.665679 0.47563 0.991912 0.149397 0.282532 0.300826 0.559983 0.47563 0.829304 0.189032 0.289647 0.40144 0.563032 0.620961 0.836418 0.223587 0.278467 0.454288 0.547788 0.707347 0.804912 0.105696 0.107728 0.183951 0.232734 0.295744 0.336396 0.147364 0.136185 0.31607 0.228668 0.469532 0.355706 0.265255 0.220538 0.536608 0.430913 0.826255 0.627059 0.328266 0.22257 0.663646 0.416684 1.009189 0.597586 0.153462 0.080288 0.282532 0.188016 0.441076 0.26119 0.12094 0.055897 0.246962 0.077239 0.368918 0.128054 0.374 0.156511 0.752065 0.283549 1.139276 0.395342 0.294728 0.085369 0.586407 0.168706 0.883168 0.227652 0.358755 0.071141 0.71751 0.111793 1.081347 0.145331 0.325217 0.029473 0.646369 0.057929 0.969554 0.056913 0.348592 0 0.693119-0.030489 1.040695-0.065043 0.325217-0.032522 0.646369-0.065043 0.965488-0.128054 0.347576-0.067076 0.683972-0.165657 1.024434-0.267288 0.305907-0.092484 0.609782-0.184967 0.906543-0.304891 0.326233-0.131103 0.638239-0.290663 0.952276-0.45632 0.298793-0.156511 0.590472-0.31607 0.874021-0.501038 0.273386-0.178869 0.53051-0.380098 0.789668-0.587423 0.296761-0.236799 0.582342-0.480712 0.853695-0.750032 0.099598-0.099598 0.216473-0.171755 0.313021-0.275418l112.277149-109.496543 56.928242 52.177023c0.835402 1.974678 2.253145 3.72272 4.228839 4.916876 4.026595 2.434047 9.002417 1.816134 12.366381-1.121999 0.780521-0.566081 1.518357-1.205336 2.141352-2.002118 0.676858-0.865891 1.147407-1.817151 1.515309-2.793818L671.048454 471.298568l59.362289 54.40781c4.58861 3.588568 11.216942 2.778574 14.80551-1.810037 1.655558-2.115944 2.333433-4.664833 2.177938-7.150712C747.406387 516.536271 747.456186 516.338092 747.456186 516.125684zM676.090336 447.393076l-0.54982-0.504087c-0.24188-0.189032-0.509168-0.31607-0.762228-0.480712-0.111793-0.073174-0.200212-0.166674-0.315054-0.236799-0.077239-0.04675-0.161592-0.069109-0.239848-0.113826-0.423799-0.239848-0.855728-0.440059-1.298836-0.616896-0.224603-0.090451-0.446157-0.181918-0.673809-0.256108-0.400424-0.128054-0.803896-0.221554-1.21245-0.29981-0.285581-0.055897-0.568114-0.111793-0.855728-0.144315-0.355706-0.03862-0.708364-0.04675-1.065086-0.049799-0.339445-0.003049-0.674826-0.003049-1.012238 0.026424-0.306924 0.02744-0.60775 0.080288-0.911624 0.134152-0.377049 0.06606-0.747999 0.14025-1.115901 0.245945-0.254076 0.07419-0.499005 0.168706-0.747999 0.262206-0.402456 0.149397-0.794749 0.313021-1.177896 0.511201-0.196147 0.102647-0.38213 0.220538-0.573195 0.33538-0.413636 0.248994-0.81101 0.517298-1.190091 0.825238-0.139234 0.11281-0.268304 0.235782-0.402456 0.356723-0.397375 0.356723-0.769342 0.739869-1.114885 1.163668-0.043701 0.052848-0.097565 0.091467-0.139234 0.145331-0.063011 0.080288-0.099598 0.171755-0.15956 0.25306-0.196147 0.265255-0.418717 0.502054-0.593521 0.789668l-194.073323 295.712823-56.242238-51.548948c-0.469532-0.732755-1.002075-1.435021-1.669787-2.054966-1.933009-1.796825-4.361975-2.685074-6.808217-2.77146-0.118908-0.010163-0.236799-0.015245-0.355706-0.021342-0.24188 0-0.481728 0.003049-0.723608 0.01931-3.069237 0.05488-6.089691 1.394368-8.128396 4.000171-0.256108 0.328266-0.440059 0.686005-0.651451 1.032564l-75.272521 73.407604 66.743702-139.093334 58.537051 53.65168c1.914716 1.498031 4.183105 2.186069 6.439299 2.196232 4.205464 0.256108 8.332673-2.014314 10.212834-6.068348l126.969849-273.700705c0.72869-1.570189 0.990896-3.221682 0.927885-4.839637 0.050815-5.349822-3.905654-9.98315-9.337797-10.581752l-66.40324-12.632653L726.12804 234.14922l0.21444 259.301716L676.2377 447.527228C676.188917 447.481495 676.140135 447.437794 676.090336 447.393076z" p-id="37173"></path></svg>