<?xml version="1.0" standalone="no"?><!DOCTYPE svg PUBLIC "-//W3C//DTD SVG 1.1//EN" "http://www.w3.org/Graphics/SVG/1.1/DTD/svg11.dtd"><svg t="1526909861921" class="icon" style="" viewBox="0 0 1024 1024" version="1.1" xmlns="http://www.w3.org/2000/svg" p-id="113044" xmlns:xlink="http://www.w3.org/1999/xlink" width="32" height="32"><defs><style type="text/css"></style></defs><path d="M575.998084 640.182175a63.741347 63.741347 0 0 1 64.184091-64.184091h319.606062a63.741347 63.741347 0 0 1 64.184091 64.184091v319.606062a63.741347 63.741347 0 0 1-64.184091 64.184091h-319.606062a63.741347 63.741347 0 0 1-64.184091-64.184091z m0-575.996534A63.741347 63.741347 0 0 1 640.182175 0.00155h319.606062a63.741347 63.741347 0 0 1 64.184091 64.184091v319.606062a63.741347 63.741347 0 0 1-64.184091 64.184091h-319.606062a63.741347 63.741347 0 0 1-64.184091-64.184091zM0.00155 640.182175a63.741347 63.741347 0 0 1 64.184091-64.184091h319.606062a63.741347 63.741347 0 0 1 64.184091 64.184091v319.606062a63.741347 63.741347 0 0 1-64.184091 64.184091h-319.606062A63.741347 63.741347 0 0 1 0.00155 959.788237zM0.00155 64.185641A63.741347 63.741347 0 0 1 64.185641 0.00155h319.606062a63.741347 63.741347 0 0 1 64.184091 64.184091v319.606062a63.741347 63.741347 0 0 1-64.184091 64.184091h-319.606062A63.741347 63.741347 0 0 1 0.00155 383.791703z" p-id="113045"></path></svg>