<?xml version="1.0" standalone="no"?><!DOCTYPE svg PUBLIC "-//W3C//DTD SVG 1.1//EN" "http://www.w3.org/Graphics/SVG/1.1/DTD/svg11.dtd"><svg t="1526909854838" class="icon" style="" viewBox="0 0 1024 1024" version="1.1" xmlns="http://www.w3.org/2000/svg" p-id="112920" xmlns:xlink="http://www.w3.org/1999/xlink" width="32" height="32"><defs><style type="text/css"></style></defs><path d="M407.722667 0H77.312C34.702222 0 0 34.702222 0 77.368889v330.353778c0 42.666667 34.702222 77.368889 77.368889 77.368889h330.353778c42.666667 0 77.368889-34.702222 77.368889-77.368889V77.368889c0-42.666667-34.702222-77.368889-77.368889-77.368889zM46.193778 77.368889c0-17.123556 13.994667-31.061333 31.118222-31.061333h330.410667c17.180444 0 31.118222 13.937778 31.118222 31.061333v330.353778c0 17.066667-13.937778 31.004444-31.118222 31.004444H77.312a31.118222 31.118222 0 0 1-31.118222-31.004444V77.368889zM407.722667 538.965333H77.312c-42.666667 0-77.312 34.702222-77.312 77.368889v330.296889C0 989.297778 34.702222 1024 77.368889 1024h330.353778c42.666667 0 77.368889-34.702222 77.368889-77.368889v-330.353778c0-42.666667-34.702222-77.368889-77.368889-77.368889z m-361.528889 77.368889c0-17.123556 13.994667-31.061333 31.118222-31.061333h330.410667c17.180444 0 31.118222 13.937778 31.118222 31.004444v330.353778c0 17.123556-13.937778 31.061333-31.118222 31.061333H77.312a31.118222 31.118222 0 0 1-31.118222-31.061333v-330.353778zM946.631111 0h-330.353778c-42.666667 0-77.368889 34.702222-77.368889 77.368889v330.353778c0 42.666667 34.702222 77.368889 77.368889 77.368889h330.410667c42.666667 0 77.312-34.702222 77.312-77.368889V77.368889C1024 34.702222 989.297778 0 946.631111 0z m-361.472 77.368889c0-17.123556 13.937778-31.061333 31.118222-31.061333h330.410667c17.123556 0 31.118222 13.937778 31.118222 31.061333v330.353778c0 17.066667-13.994667 31.004444-31.118222 31.004444h-330.410667a31.118222 31.118222 0 0 1-31.118222-31.004444V77.368889zM946.631111 538.965333h-330.353778c-42.666667 0-77.368889 34.702222-77.368889 77.368889v330.296889c0 42.666667 34.702222 77.368889 77.368889 77.368889h330.410667c42.666667 0 77.312-34.702222 77.312-77.368889v-330.353778c0-42.666667-34.702222-77.368889-77.368889-77.368889z m-361.472 77.368889c0-17.123556 13.937778-31.061333 31.118222-31.061333h330.410667c17.123556 0 31.118222 13.937778 31.118222 31.004444v330.353778c0 17.123556-13.994667 31.061333-31.118222 31.061333h-330.410667a31.118222 31.118222 0 0 1-31.118222-31.061333v-330.353778z" p-id="112921"></path></svg>