<?xml version="1.0" standalone="no"?><!DOCTYPE svg PUBLIC "-//W3C//DTD SVG 1.1//EN" "http://www.w3.org/Graphics/SVG/1.1/DTD/svg11.dtd"><svg t="1527949758137" class="icon" style="" viewBox="0 0 1024 1024" version="1.1" xmlns="http://www.w3.org/2000/svg" p-id="2099" xmlns:xlink="http://www.w3.org/1999/xlink" width="32" height="32"><defs><style type="text/css"></style></defs><path d="M534.755556 950.044444c-5.688889 0-11.377778 0-17.066667-5.688888L227.555556 739.555556H79.644444c-17.066667 0-28.444444-11.377778-28.444444-28.444445V352.711111c0-17.066667 11.377778-28.444444 28.444444-28.444444H227.555556L512 113.777778h34.133333c11.377778 5.688889 17.066667 17.066667 17.066667 22.755555v779.377778c0 11.377778-5.688889 22.755556-17.066667 22.755556-5.688889 11.377778-5.688889 11.377778-11.377777 11.377777zM238.933333 682.666667c5.688889 0 11.377778 0 17.066667 5.688889l250.311111 182.044444V199.111111L256 375.466667h-5.688889c-5.688889 0-5.688889 5.688889-11.377778 5.688889H108.088889V682.666667h130.844444zM671.288889 813.511111c-5.688889 0-11.377778 0-17.066667-5.688889-11.377778-11.377778-11.377778-28.444444 0-39.822222 62.577778-68.266667 96.711111-153.6 96.711111-233.244444 0-85.333333-34.133333-164.977778-91.022222-233.244445-11.377778-11.377778-11.377778-28.444444 0-39.822222 11.377778-11.377778 28.444444-11.377778 39.822222 0C762.311111 341.333333 796.444444 432.355556 796.444444 529.066667c0 96.711111-39.822222 193.422222-108.088888 273.066666-5.688889 5.688889-11.377778 11.377778-17.066667 11.377778z"  p-id="2100"></path><path d="M813.511111 915.911111c-5.688889 0-11.377778 0-17.066667-5.688889-11.377778-11.377778-17.066667-28.444444-5.688888-39.822222 79.644444-102.4 119.466667-216.177778 119.466666-335.644444 0-119.466667-39.822222-233.244444-119.466666-335.644445-11.377778-11.377778-5.688889-28.444444 5.688888-39.822222 11.377778-11.377778 28.444444-5.688889 39.822223 5.688889C921.6 273.066667 967.111111 398.222222 967.111111 529.066667c0 136.533333-45.511111 261.688889-130.844444 375.466666-5.688889 5.688889-17.066667 11.377778-22.755556 11.377778z" p-id="2101"></path></svg>
