<?xml version="1.0" standalone="no"?><!DOCTYPE svg PUBLIC "-//W3C//DTD SVG 1.1//EN" "http://www.w3.org/Graphics/SVG/1.1/DTD/svg11.dtd"><svg t="1526999620706" class="icon" style="" viewBox="0 0 1024 1024" version="1.1" xmlns="http://www.w3.org/2000/svg" p-id="31099" xmlns:xlink="http://www.w3.org/1999/xlink" width="32" height="32"><defs><style type="text/css"></style></defs><path d="M362.135704 544.900741c28.975407 0 52.698074 22.319407 52.698074 50.138074 0 45.207704 39.348148 82.223407 87.988148 82.223407 48.621037 0 87.969185-37.015704 87.969185-82.223407 0-27.818667 23.703704-50.138074 52.698074-50.138074 28.975407 0 52.679111 22.319407 52.679111 50.138074 0 100.788148-86.85037 182.518519-193.365333 182.518518-106.496 0-193.365333-81.73037-193.365333-182.518518 0-27.818667 23.703704-50.138074 52.717037-50.138074z"  p-id="31100"></path><path d="M689.929481 227.707259l87.608889 66.180741c92.634074 70.125037 138.808889 173.074963 138.808889 293.888 0 212.005926-183.049481 384.227556-407.760592 384.227556S100.845037 799.781926 100.845037 587.776c0-120.813037 46.155852-223.762963 138.808889-293.869037l87.608889-66.199704-42.666667-33.564444c-13.558519-10.42963-28.122074-21.466074-44.430222-33.621334-23.419259-17.445926-27.648-40.903111-9.519407-66.18074 20.005926-21.200593 48.583111-21.769481 85.788444 10.56237l40.315259 32.995556 5.802667 4.987259a6259.712 6259.712 0 0 1 25.732741 22.281481c1.839407 1.611852 3.26163 2.88237 4.247703 3.792593 1.649778 1.536 1.668741 1.554963 2.029037 1.953185 8.419556 7.907556 16.156444 17.294222 20.34726 27.401482 4.551111 10.752 6.940444 21.238519 6.674963 29.866666 0.796444 19.000889-7.888593 36.276148-22.850371 52.432593-6.371556 6.883556-23.381333 21.69363-20.48 18.868148l-90.605037 71.86963c-68.41837 55.637333-100.370963 127.67763-100.370963 216.424296 0 156.634074 154.699852 302.895407 321.308445 302.895407s321.308444-146.261333 321.308444-302.895407c0-88.746667-31.952593-160.786963-100.276148-216.329481l-91.344593-72.533334c3.565037 3.39437-13.463704-11.415704-19.816296-18.299259-14.980741-16.156444-23.646815-33.431704-22.85037-51.768889-0.284444-9.291852 2.123852-19.797333 6.637037-30.492444 4.361481-10.486519 12.325926-19.986963 22.281481-29.202963l36.333037-31.61126 59.240297-44.999111c32.426667-17.957926 54.423704-19.285333 71.528296 1.649778 17.540741 21.428148 9.652148 48.260741-14.601482 66.332444-16.346074 12.174222-30.90963 23.210667-44.373333 33.564445l-42.723556 33.621333z" p-id="31101"></path></svg>
