<?xml version="1.0" standalone="no"?><!DOCTYPE svg PUBLIC "-//W3C//DTD SVG 1.1//EN" "http://www.w3.org/Graphics/SVG/1.1/DTD/svg11.dtd"><svg t="1526909194845" class="icon" style="" viewBox="0 0 1024 1024" version="1.1" xmlns="http://www.w3.org/2000/svg" p-id="102063" xmlns:xlink="http://www.w3.org/1999/xlink" width="32" height="32"><defs><style type="text/css"></style></defs><path d="M744.646656 878.462976c-8.86272-56.178688-23.725056-100.671488-44.588032-133.4784-32.367616-50.899968-71.763968-86.680576-121.172992-112.067584-26.98752-13.867008-46.424064-19.908608-80.364544-30.10048-17.140736-5.146624-28.602368-15.1552-28.602368-39.061504 0-35.87584 20.901888-41.19552 21.950464-41.467904 61.384704-15.940608 121.976832-72.500224 121.976832-154.870784 0-92.619776-73.6-171.599872-166.218752-171.599872S284.19072 267.716608 284.19072 360.336384c0 80.305152 60.263424 142.542848 122.372096 161.951744 0.7424 0.231424 22.21568 4.537344 22.21568 36.097024 0 31.55968-17.272832 38.616064-31.271936 44.432384-18.00192 7.477248-48.59904 18.284544-70.423552 30.10048-38.514688 20.851712-75.963392 46.321664-104.179712 81.243136-35.080192 43.415552-56.091648 98.183168-63.033344 164.302848h584.776704z m179.448832-129.12128c17.89952 43.123712 26.975232 88.901632 26.976256 136.061952v16.485376c0 15.752192-12.770304 28.522496-28.522496 28.522496s-28.522496-12.770304-28.522496-28.522496v-16.484352c0-39.616512-7.609344-78.035968-22.617088-114.192384-14.48448-34.894848-35.213312-66.228224-61.612032-93.12768-26.36288-26.86464-57.046016-47.9488-91.196416-62.666752a283.024384 283.024384 0 0 0-34.873344-12.3904 28.522496 28.522496 0 0 1-4.95616-52.977664c16.218112-8.076288 31.00672-18.827264 43.957248-31.95392 31.207424-31.63136 48.39424-73.714688 48.39424-118.49728 0-44.783616-17.186816-86.86592-48.39424-118.49728-25.960448-26.314752-59.047936-42.750976-94.826496-47.470592 26.088448 36.170752 41.46176 80.579584 41.46176 128.585728 0 32.956416-7.256064 64.212992-20.237312 92.280832-10.72128 23.993344-25.735168 46.08-44.659712 65.263616-17.278976 17.513472-36.95104 31.717376-58.258432 42.329088a350.266368 350.266368 0 0 1 43.404288 15.420416c42.457088 18.29888 80.58368 44.491776 113.32096 77.851648 32.736256 33.359872 58.440704 72.210432 76.399616 115.475456 18.596864 44.802048 28.024832 92.382208 28.024832 141.41952v18.630656H94.303232v-18.629632c0-49.037312 9.428992-96.618496 28.024832-141.41952 17.958912-43.264 43.662336-82.115584 76.399616-115.475456 32.73728-33.358848 70.863872-59.552768 113.32096-77.851648a350.52544 350.52544 0 0 1 42.333184-15.120384c-21.53984-10.642432-41.4208-24.950784-60.022784-43.833344-40.252416-39.885824-65.190912-95.199232-65.190912-156.342272 0-100.93568 67.946496-185.99424 160.592896-211.951616 19.341312-5.588992 39.565312-8.492032 60.23168-8.492032 43.33568 0 84.740096 12.71296 120.083456 36.381696a221.290496 221.290496 0 0 1 36.279296-2.988032c59.322368 0 115.073024 23.392256 156.981248 65.870848 41.807872 42.37312 64.831488 98.684928 64.831488 158.56128 0 59.874304-23.023616 116.187136-64.831488 158.56128a226.25792 226.25792 0 0 1-10.624 10.095616c36.369408 17.287168 69.221376 40.752128 97.800192 69.873664 31.532032 32.130048 56.288256 69.548032 73.582592 111.213568z" p-id="102064"></path></svg>