<?xml version="1.0" standalone="no"?><!DOCTYPE svg PUBLIC "-//W3C//DTD SVG 1.1//EN" "http://www.w3.org/Graphics/SVG/1.1/DTD/svg11.dtd"><svg t="1526909205347" class="icon" style="" viewBox="0 0 1024 1024" version="1.1" xmlns="http://www.w3.org/2000/svg" p-id="102187" xmlns:xlink="http://www.w3.org/1999/xlink" width="32" height="32"><defs><style type="text/css"></style></defs><path d="M913.408 718.867456c17.89952 43.123712 26.975232 88.901632 26.976256 136.061952v16.485376c0 15.752192-12.770304 28.522496-28.522496 28.522496s-28.522496-12.770304-28.522496-28.522496v-16.484352c0-39.616512-7.609344-78.035968-22.617088-114.192384-14.48448-34.894848-35.213312-66.228224-61.612032-93.12768-26.36288-26.86464-57.046016-47.9488-91.196416-62.666752a283.024384 283.024384 0 0 0-34.873344-12.3904 28.522496 28.522496 0 0 1-4.95616-52.977664c16.218112-8.076288 31.00672-18.827264 43.957248-31.95392 31.207424-31.63136 48.39424-73.714688 48.39424-118.49728 0-44.783616-17.186816-86.86592-48.39424-118.49728-25.960448-26.314752-59.047936-42.750976-94.826496-47.470592 26.088448 36.170752 41.46176 80.579584 41.46176 128.585728 0 32.956416-7.256064 64.212992-20.237312 92.280832-10.72128 23.993344-25.735168 46.08-44.659712 65.263616-17.278976 17.513472-36.95104 31.717376-58.258432 42.329088a350.266368 350.266368 0 0 1 43.404288 15.420416c42.457088 18.29888 80.58368 44.491776 113.32096 77.851648s58.440704 72.210432 76.399616 115.475456c18.596864 44.802048 28.024832 92.382208 28.024832 141.41952v18.630656H83.615744v-18.629632c0-49.037312 9.428992-96.618496 28.024832-141.41952 17.958912-43.264 43.662336-82.115584 76.399616-115.475456 32.73728-33.358848 70.863872-59.552768 113.32096-77.851648a350.52544 350.52544 0 0 1 42.333184-15.120384c-21.53984-10.642432-41.4208-24.950784-60.022784-43.833344-40.252416-39.885824-65.190912-95.199232-65.190912-156.342272 0-100.93568 67.946496-185.99424 160.592896-211.951616 19.341312-5.588992 39.565312-8.492032 60.23168-8.492032 43.33568 0 84.740096 12.71296 120.083456 36.381696a221.290496 221.290496 0 0 1 36.279296-2.988032c59.322368 0 115.073024 23.392256 156.981248 65.870848 41.807872 42.37312 64.831488 98.684928 64.831488 158.56128 0 59.874304-23.023616 116.187136-64.831488 158.56128a225.729536 225.729536 0 0 1-10.624 10.095616c36.369408 17.287168 69.221376 40.752128 97.800192 69.873664 31.532032 32.130048 56.288256 69.549056 73.582592 111.213568z" p-id="102188"></path></svg>