<?xml version="1.0" standalone="no"?><!DOCTYPE svg PUBLIC "-//W3C//DTD SVG 1.1//EN" "http://www.w3.org/Graphics/SVG/1.1/DTD/svg11.dtd"><svg t="1526907762607" class="icon" style="" viewBox="0 0 1024 1024" version="1.1" xmlns="http://www.w3.org/2000/svg" p-id="72902" xmlns:xlink="http://www.w3.org/1999/xlink" width="32" height="32"><defs><style type="text/css"></style></defs><path d="M958.61585 511.279592c0-60.870346-12.031011-119.874181-35.758412-175.37217-22.751167-53.229319-55.245232-100.951203-96.566336-141.841495C742.102678 110.772896 630.418017 64.903196 511.810688 64.903196S281.524838 110.772896 197.336414 194.065927c-41.327244 40.890292-73.815169 88.606037-96.572476 141.841495-23.722284 55.497988-35.753295 114.502847-35.753295 175.37217 0 60.863183 12.031011 119.868041 35.753295 175.373193 22.757307 53.229319 55.245232 100.951203 96.572476 141.834332 84.187401 83.293031 195.866946 129.162732 314.474274 129.162732 73.383334 0 146.116869-18.329461 210.955596-53.080939l160.322405 52.095495c2.049682 0.666172 4.137227 0.984421 6.202259 0.984421 6.489808 0 12.796444-3.187599 17.271362-9.008164 5.901407-7.67275 7.610328-18.597567 4.412496-28.231995l-45.279253-136.444579c27.681456-35.792181 49.616024-75.334779 65.305355-117.743658C949.328323 616.696504 958.61585 564.562123 958.61585 511.279592zM286.86752 572.290131c-33.495882 0-60.746526-27.258831-60.746526-60.764945 0-33.490765 27.250644-60.738339 60.746526-60.738339 33.493835 0 60.742433 27.247574 60.743456 60.738339C347.610976 545.031301 320.361355 572.290131 286.86752 572.290131zM512.002047 572.290131c-33.504068 0-60.760852-27.258831-60.760852-60.764945 0-33.490765 27.256784-60.738339 60.760852-60.738339 33.502022 0 60.757782 27.247574 60.756759 60.738339C572.758806 545.031301 545.504068 572.290131 512.002047 572.290131zM737.108944 572.290131c-33.495882 0-60.746526-27.258831-60.746526-60.764945 0-33.490765 27.251667-60.738339 60.746526-60.738339 33.509185 0 60.771085 27.247574 60.771085 60.738339C797.880029 545.031301 770.618129 572.290131 737.108944 572.290131z" p-id="72903"></path></svg>