<?xml version="1.0" standalone="no"?><!DOCTYPE svg PUBLIC "-//W3C//DTD SVG 1.1//EN" "http://www.w3.org/Graphics/SVG/1.1/DTD/svg11.dtd"><svg t="1526907977289" class="icon" style="" viewBox="0 0 1024 1024" version="1.1" xmlns="http://www.w3.org/2000/svg" p-id="74367" xmlns:xlink="http://www.w3.org/1999/xlink" width="32" height="32"><defs><style type="text/css"></style></defs><path d="M889.28768 957.64992c-2.05824 0-4.15232-0.32256-6.20032-0.98304l-160.32256-52.096c-64.83968 34.74944-137.5744 53.07904-210.95936 53.07904-118.60992 0-230.28736-45.87008-314.47552-129.16224-41.32864-40.8832-73.81504-88.61184-96.57344-141.83424-23.72096-55.50592-35.75296-114.51392-35.75296-175.37536 0-60.87168 12.032-119.87456 35.75296-175.37536 22.7584-53.23264 55.2448-100.95104 96.57344-141.83936 84.18816-83.29216 195.8656-129.16224 314.4704-129.16224 118.60992 0 230.29248 45.87008 314.48064 129.16224 41.3184 40.88832 73.81504 88.61184 96.56832 141.84448 23.72608 55.49568 35.75296 114.50368 35.75296 175.37024 0 53.27872-9.28256 105.4208-27.61728 154.94144a443.71456 443.71456 0 0 1-65.3056 117.74976l45.28128 136.43776c3.19488 9.63584 1.4848 20.56192-4.41344 28.2368-4.45952 5.81632-10.76736 9.00608-17.25952 9.00608z m-170.71616-105.70752c2.06336 0 4.13696 0.32768 6.15936 0.99328l122.95168 40.7296-33.52064-102.95296c-3.29728-10.13248-1.3312-21.62176 5.0176-29.37856a394.94144 394.94144 0 0 0 65.78176-115.58912c15.65184-43.12576 23.58784-88.46336 23.58784-134.75328 0-218.56768-178.24256-396.3904-397.32736-396.3904s-397.32736 177.8176-397.32736 396.3904 178.24256 396.3904 397.32736 396.3904c68.97664 0 137.22112-18.23232 197.35552-52.73088a20.00384 20.00384 0 0 1 9.99424-2.70848z" p-id="74368"></path><path d="M286.86848 450.78528c-33.49504 0-60.7488 27.24864-60.7488 60.73856 0 33.50528 27.25376 60.76416 60.7488 60.76416s60.74368-27.25888 60.74368-60.76416c0-33.48992-27.24864-60.73856-60.74368-60.73856zM512 450.78528c-33.50528 0-60.76416 27.24864-60.76416 60.73856 0 33.50528 27.25888 60.76416 60.76416 60.76416 33.50016 0 60.75904-27.25888 60.75904-60.76416 0-33.48992-27.25376-60.73856-60.75904-60.73856zM737.11104 450.78528c-33.49504 0-60.7488 27.24864-60.7488 60.73856 0 33.50528 27.24864 60.76416 60.7488 60.76416 33.5104 0 60.76928-27.25888 60.76928-60.76416 0-33.48992-27.25888-60.73856-60.76928-60.73856z" p-id="74369"></path></svg>
