<?xml version="1.0" standalone="no"?><!DOCTYPE svg PUBLIC "-//W3C//DTD SVG 1.1//EN" "http://www.w3.org/Graphics/SVG/1.1/DTD/svg11.dtd"><svg t="1526997238704" class="icon" style="" viewBox="0 0 1024 1024" version="1.1" xmlns="http://www.w3.org/2000/svg" p-id="27148" xmlns:xlink="http://www.w3.org/1999/xlink" width="32" height="32"><defs><style type="text/css"></style></defs><path d="M512 1024C229.632 1024 0 794.3168 0 512S229.632 0 512 0c282.4192 0 512 229.6832 512 512s-229.5808 512-512 512zM512 48.7424C256.5632 48.7424 48.7424 256.5632 48.7424 512S256.5632 975.2576 512 975.2576s463.2576-207.8208 463.2576-463.2576S767.4368 48.7424 512 48.7424z"  p-id="27149"></path><path d="M424.6016 579.2256c8.4992-9.9328 15.104-26.9312 4.7104-54.016-45.4144-45.9776-79.7184-120.576-79.7184-193.9456 0-112.3328 74.9056-171.264 162.5088-171.264 87.5008 0 162.816 58.88 162.816 171.264 0 73.1136-34.5088 147.3536-79.616 193.4848h0.2048c-10.0864 30.5664-4.9152 47.36 2.0992 56.4736-13.9776 15.2064-47.104 46.8992-80.0256 46.8992l54.4256 80.6912s32.5632-45.0048 54.3744-112.4864c91.8016 32.6656 188.3136 88.8832 188.3136 146.5344v22.272c0 80.5888-155.4944 98.9696-301.6704 98.9696-145.8176 0-303.4112-18.3296-303.4112-98.9696v-22.272c0-56.832 99.2256-114.3296 188.3136-148.0192v1.0752a440.3712 440.3712 0 0 0 54.4256 112.896l54.4256-80.6912c-34.7648 0-69.4784-34.7648-82.176-48.896z" p-id="27150"></path></svg>
