<?xml version="1.0" standalone="no"?><!DOCTYPE svg PUBLIC "-//W3C//DTD SVG 1.1//EN" "http://www.w3.org/Graphics/SVG/1.1/DTD/svg11.dtd"><svg t="1529064677838" class="icon" style="" viewBox="0 0 1317 1024" version="1.1" xmlns="http://www.w3.org/2000/svg" p-id="1750" xmlns:xlink="http://www.w3.org/1999/xlink" width="41.15625" height="32"><defs><style type="text/css"></style></defs><path d="M1210.230802 163.200749 996.602576 163.200749 868.745275 32.640632C868.745275 32.640632 868.112674 32.00067 867.798777 32.00067L867.166179 31.360711C848.17451 12.160278 822.537836 0 793.423214 0L527.578153 0C496.561524 0 469.027351 13.440199 449.721786 34.877709L449.721786 35.199266 324.709985 163.199248 106.338611 163.199248C47.473781 163.199248 0 209.918833 0 269.438809L0 916.15746C0 975.681793 47.473781 1024 106.338611 1024L1210.233955 1024C1268.784754 1024 1316.57264 975.681793 1316.57264 916.15746L1316.57264 269.441811C1316.57099 209.920336 1268.781749 163.200749 1210.230802 163.200749L1210.230802 163.200749ZM658.283956 862.40373C497.193975 862.40373 365.855721 729.283473 365.855721 566.084225 365.855721 402.561919 497.195476 269.760366 658.283956 269.760366 819.692488 269.760366 950.716843 402.561919 950.716843 566.084225 950.716843 729.283473 819.692488 862.40373 658.283956 862.40373L658.283956 862.40373ZM1190.292784 334.403318C1165.925516 334.403318 1145.985849 314.241369 1145.985849 289.280702 1145.985849 264.320184 1165.924016 244.162741 1190.292784 244.162741 1214.664409 244.162741 1234.602423 264.320184 1234.602423 289.280702 1234.602572 314.241369 1214.664409 334.403318 1190.292784 334.403318L1190.292784 334.403318ZM658.283956 342.083432C536.120806 342.083432 437.378127 442.241352 437.378127 566.084225 437.378127 689.601188 536.120806 790.080512 658.283956 790.080512 780.128701 790.080512 879.189785 689.922592 879.189785 566.084225 879.189785 442.241352 780.128701 342.083432 658.283956 342.083432L658.283956 342.083432Z" p-id="1751"></path></svg>