<?xml version="1.0" standalone="no"?><!DOCTYPE svg PUBLIC "-//W3C//DTD SVG 1.1//EN" "http://www.w3.org/Graphics/SVG/1.1/DTD/svg11.dtd"><svg t="1526919213808" class="icon" style="" viewBox="0 0 1024 1024" version="1.1" xmlns="http://www.w3.org/2000/svg" p-id="55811" xmlns:xlink="http://www.w3.org/1999/xlink" width="32" height="32"><defs><style type="text/css"></style></defs><path d="M867.4816 723.2512a22.656 22.656 0 1 0 45.3376 0 22.656 22.656 0 0 0-45.3376 0z"  p-id="55812"></path><path d="M912.8192 615.616m-22.6688 0a22.6688 22.6688 0 1 0 45.3376 0 22.6688 22.6688 0 1 0-45.3376 0Z" p-id="55813"></path><path d="M646.8224 309.9264c9.8304 0 19.648-7.3856 19.648-19.6736 0-12.3008-7.3728-19.6736-19.648-19.6736h-29.504l41.7792-39.3216c7.3728-7.3728 9.856-19.6608 0-27.0336-9.8304-7.3728-17.216-4.9024-27.0208 2.4576l-58.9824 56.5376-56.5376-56.5376c-7.3856-7.36-19.6608-9.8304-29.504-2.4576-9.8304 7.3856-4.9024 22.1312 2.4704 29.504l39.3216 39.3216h-29.4912c-9.8304 0-19.6736 7.3728-19.6736 19.6608 0 12.2752 7.3728 19.6736 19.6736 19.6736h56.5376V344.32h-56.5376c-9.8304 0-19.6736 7.3728-19.6736 19.6736 0 12.2752 7.3728 19.648 19.6736 19.648h56.5376v19.6608c0 9.856 7.3728 19.6864 19.6352 19.6864 9.8688 0 19.6736-7.3856 19.6736-19.6864v-19.6608h54.08c9.8304 0 19.6736-7.3728 19.6736-19.648 0-12.3008-7.3856-19.6736-19.6736-19.6736H595.2v-34.3936h51.6224zM329.2928 556.1344c0 14.144 5.6576 19.8144 11.328 19.8144 14.1568 0 17.0112-2.816 19.84-8.4992 2.8288-16.9984 8.4992-31.1424 31.1552-31.1424s25.4976 11.328 31.1552 31.1424c0 5.6832 5.6576 8.4992 11.3408 8.4992h8.4992s2.8288 0 5.6704-2.816c2.8288-2.8544 5.6576-8.512 5.6576-16.9984 0-22.656-19.8144-53.824-62.3232-50.9824-39.6544 2.8416-62.3232 31.1552-62.3232 50.9824z"  p-id="55814"></path><path d="M856.1664 748.7616c-8.4864 0-14.144 2.8288-16.9984 8.4864 0 0-28.3264 39.6544-93.4784 76.4928v45.312h-70.8096s-8.512-28.3264-31.1808-36.8384c-25.4848-8.4736-42.4576 11.3536-42.4576 11.3536H456.768c-8.4992-5.6576-14.1696-14.1696-36.8384-11.3536-25.4976 5.6832-42.4832 39.68-42.4832 39.68h-56.6528V819.584c-39.6544-19.84-90.6496-59.4816-104.8064-110.4896-11.328-22.6688-31.1552-28.3264-48.1408-31.1552-11.3408 0-22.6688-5.6576-34.0096-2.8416v-113.2928h42.496c25.4848 0 33.984-19.84 45.3248-42.496 11.328-42.496 25.4848-70.8224 48.1536-96.32 11.328-14.1568 25.4976-25.4976 39.6544-33.9712V321.024h36.8128c0 42.496-2.816 87.808 42.496 155.7888h376.7424c2.8288-5.6576 5.6576-11.328 8.4864-19.8144 5.6576-11.3408 11.3408-28.3264 16.9984-48.1536 53.8112 42.4832 96.3072 90.6496 101.9776 184.1024v22.6688h42.496c0-141.6192-82.176-212.4288-133.1456-252.0832 2.8416-19.8528 2.8416-36.8128 2.8416-53.824-2.8416-96.32-90.6496-203.9552-218.112-209.6128-150.1312-8.4992-223.7824 101.9648-237.9392 181.2736-8.512 0-19.84 2.8416-31.168 0-14.1568-5.6576-42.496-14.1568-59.4816-11.328 2.8288 22.6688 2.8288 45.3376 5.6704 67.9808l2.816 33.984c-11.328 8.512-25.4848 19.8528-36.8256 34.0096-19.8272 25.4976-42.4832 59.4816-56.6656 113.3056h-42.4704c-19.8272 0-42.496 11.3152-42.496 33.984v133.12c0 19.84 19.8272 31.1808 31.1552 31.1808h50.9952c2.816 11.3152 8.4992 28.3264 14.1568 42.4832 14.1696 25.472 39.6544 50.9696 87.808 84.9792v48.1664c0 19.8272 11.3408 28.3136 31.168 31.1552H405.76c8.4992 0 28.3264 0 31.1552-31.1552h181.2864c2.8416 5.6576 2.8416 11.328 5.6704 14.1568 5.6576 8.4864 11.328 14.144 25.4848 14.144h101.9776s33.9968 2.8416 31.168-39.6544v-28.3264c28.3264-16.9856 50.9824-33.984 70.7968-56.6656 2.8544-2.8288 5.6832-8.4992 11.3536-11.3408 2.8288-2.816 5.6576-8.4864 5.6576-14.144 8.4992-11.3152 0.0128-22.6432-14.144-22.6432zM385.9456 306.88c2.8288-53.824 65.1392-178.4704 201.1136-169.984h8.4992c87.808 5.6832 164.3008 90.6624 169.9584 169.984 2.8288 50.9696-5.6576 82.1504-17.0112 101.9648-5.6576 11.328-5.6576 11.328-11.3152 25.4976H417.1008c-5.6576-5.6576-8.4992-11.3408-14.1568-22.6688-11.3408-19.8144-19.8272-48.1536-16.9984-104.7936z" p-id="55815"></path></svg>
