<?xml version="1.0" standalone="no"?><!DOCTYPE svg PUBLIC "-//W3C//DTD SVG 1.1//EN" "http://www.w3.org/Graphics/SVG/1.1/DTD/svg11.dtd"><svg t="1526997702377" class="icon" style="" viewBox="0 0 1024 1024" version="1.1" xmlns="http://www.w3.org/2000/svg" p-id="30022" xmlns:xlink="http://www.w3.org/1999/xlink" width="32" height="32"><defs><style type="text/css"></style></defs><path d="M470.723048 94.841905l2.023619 22.016-21.723429 4.144762C297.910857 150.186667 185.295238 286.037333 185.295238 445.513143V758.00381H128.560762a31.036952 31.036952 0 0 0 0 62.049523h766.878476a31.036952 31.036952 0 1 0 0-62.049523H838.704762V445.513143c0-159.47581-112.64-295.326476-265.728-324.510476l-21.699048-4.144762 1.999238-22.016a43.641905 43.641905 0 0 0 0.170667-3.974095C553.447619 67.559619 534.844952 48.761905 512 48.761905c-22.844952 0-41.447619 18.797714-41.447619 42.105905 0 1.340952 0.048762 2.657524 0.170667 3.974095zM512 0c45.275429 0 82.67581 33.572571 89.209905 77.263238C767.439238 118.101333 887.466667 269.287619 887.466667 445.513143V709.241905h7.972571a79.798857 79.798857 0 1 1 0 159.573333H128.560762a79.798857 79.798857 0 1 1 0-159.573333H136.533333V445.513143c0-176.225524 120.027429-327.43619 286.256762-368.249905C429.348571 33.572571 466.724571 0 512 0z"  p-id="30023"></path><path d="M334.019048 844.458667h48.761904C382.780952 916.74819 440.685714 975.238095 512 975.238095s129.219048-58.514286 129.219048-130.779428h48.761904C689.980952 943.567238 610.352762 1024 512 1024s-177.980952-80.432762-177.980952-179.541333z"  p-id="30024"></path></svg>
