<?xml version="1.0" standalone="no"?><!DOCTYPE svg PUBLIC "-//W3C//DTD SVG 1.1//EN" "http://www.w3.org/Graphics/SVG/1.1/DTD/svg11.dtd"><svg t="1526918977465" class="icon" style="" viewBox="0 0 1024 1024" version="1.1" xmlns="http://www.w3.org/2000/svg" p-id="51415" xmlns:xlink="http://www.w3.org/1999/xlink" width="32" height="32"><defs><style type="text/css"></style></defs><path d="M915.21024 569.01632a442.85952 442.85952 0 0 0-28.18048-78.47936 373.71904 373.71904 0 0 0-40.42752-66.80576 729.4976 729.4976 0 0 0-44.89216-53.61664 570.08128 570.08128 0 0 0-122.30656-96.37888l-4.79232-2.82624H349.42976l-4.75136 2.74432a562.5856 562.5856 0 0 0-123.2896 96.4608c-15.5648 16.13824-30.72 34.28352-45.13792 53.94432-14.49984 19.78368-27.8528 42.10688-39.60832 66.31424a399.89248 399.89248 0 0 0-28.34432 78.88896 377.0368 377.0368 0 0 0-10.60864 91.17696c0 53.32992 8.02816 101.86752 23.83872 144.30208a273.89952 273.89952 0 0 0 76.34944 111.0016c34.07872 30.06464 77.90592 53.37088 130.33472 69.18144 51.44576 15.5648 113.54112 23.42912 184.64768 23.42912 24.90368 0 71.0656-2.8672 72.4992-2.99008 3.15392-0.45056 77.78304-10.40384 110.87872-20.43904 52.0192-15.85152 95.68256-39.1168 129.8432-69.18144a273.85856 273.85856 0 0 0 76.3904-111.04256c15.81056-42.35264 23.79776-90.9312 23.79776-144.26112 0-32.31744-3.72736-63.03744-11.0592-91.42272z m-51.11808 221.30688a233.63584 233.63584 0 0 1-65.04448 94.65856c-29.77792 26.17344-68.36224 46.61248-114.72896 60.70272-29.81888 9.09312-103.30112 18.88256-102.93248 18.88256-0.12288 0-44.52352 2.78528-68.52608 2.78528-67.05152 0-125.21472-7.29088-172.81024-21.66784-46.73536-14.1312-85.4016-34.57024-115.0976-60.74368a232.6528 232.6528 0 0 1-65.04448-94.57664c-14.1312-37.84704-21.2992-81.55136-21.2992-130.00704 0-28.95872 3.15392-56.27904 9.37984-81.26464a359.424 359.424 0 0 1 25.3952-70.81984 395.01824 395.01824 0 0 1 35.84-60.04736c13.312-18.14528 27.32032-34.89792 41.61536-49.7664A522.6496 522.6496 0 0 1 360.448 311.82848h302.85824a530.51392 530.51392 0 0 1 108.58496 86.34368c13.88544 14.99136 28.0576 31.90784 42.06592 50.33984 13.5168 17.65376 25.64096 37.6832 36.00384 59.55584 10.28096 21.62688 18.88256 45.58848 25.51808 71.18848a323.9936 323.9936 0 0 1 9.74848 81.05984c0.08192 48.5376-7.08608 92.28288-21.13536 130.00704z"  p-id="51416"></path><path d="M630.1696 643.072v-0.08192c19.94752-0.12288 36.08576-16.95744 36.08576-37.72416 0-20.76672-16.13824-37.60128-36.08576-37.72416v-0.08192h-73.15456c0.16384-0.86016-0.08192-1.6384 0-2.4576l85.68832-91.136c14.00832-16.384 6.88128-29.9008-7.24992-44.76928-14.21312-14.90944-37.43744-18.06336-48.9472-5.03808l-73.728 81.7152-79.58528-82.78016c-10.07616-10.48576-29.696-7.04512-43.78624 7.61856s-17.36704 35.10272-7.29088 45.54752l81.38752 84.66432a18.0224 18.0224 0 0 0-3.072 6.67648H394.28096v0.08192h-0.2048c-20.02944 0-36.29056 16.87552-36.29056 37.72416 0 20.84864 16.26112 37.76512 36.29056 37.76512l0.2048-0.04096v0.04096h72.4992v37.60128h-72.4992v0.12288h-0.2048c-20.02944 0-36.29056 16.87552-36.29056 37.76512 0 20.84864 16.26112 37.76512 36.29056 37.76512l0.2048-0.04096v0.04096h72.4992v37.96992h0.73728a48.20992 48.20992 0 0 0-0.86016 9.216c0 26.05056 20.31616 47.18592 45.34272 47.18592 25.06752 0 45.38368-21.13536 45.38368-47.18592 0-3.15392-0.32768-6.26688-0.90112-9.216h0.45056v-37.96992l73.27744-0.04096c19.94752-0.12288 36.0448-16.95744 36.0448-37.72416s-16.13824-37.60128-36.0448-37.72416v-0.16384h-73.3184V643.072h73.27744zM274.14528 139.63264c4.75136 7.61856 10.73152 14.336 17.53088 19.8656 3.80928 3.11296 9.58464 8.3968 17.36704 15.72864 8.56064 8.23296 17.24416 16.5888 25.64096 24.86272 10.15808 10.36288 21.42208 21.504 33.66912 33.3824l10.40384 10.07616h267.55072l10.48576-10.56768c11.30496-11.4688 22.15936-22.24128 32.72704-32.44032 8.8064-8.64256 17.44896-16.9984 26.09152-25.1904 7.74144-7.41376 13.43488-12.65664 18.92352-17.2032 5.36576-4.99712 10.36288-10.81344 14.9504-17.48992 5.24288-7.70048 8.8064-16.05632 10.73152-25.02656a65.00352 65.00352 0 0 0 0-26.66496c-2.17088-10.48576-7.45472-20.15232-16.95744-30.06464-13.80352-12.86144-27.68896-15.5648-36.864-15.5648l-6.47168 0.45056a82.7392 82.7392 0 0 0-21.99552 6.3488 759.808 759.808 0 0 1-14.99136 6.26688c-0.04096 0-1.96608 0.73728-7.7824 0.8192a91.50464 91.50464 0 0 1-7.41376-7.9872 138.11712 138.11712 0 0 0-18.432-18.51392c-8.192-6.88128-22.7328-15.07328-45.30176-15.07328-17.44896 0-32.9728 4.99712-44.97408 14.49984a164.94592 164.94592 0 0 0-18.96448 17.53088c-2.8672 3.072-5.81632 5.9392-8.68352 8.51968a54.23104 54.23104 0 0 1-7.04512-7.00416 150.81472 150.81472 0 0 0-17.44896-17.98144c-8.06912-7.08608-22.528-15.5648-45.4656-15.5648-22.528 0-37.02784 8.192-45.21984 15.03232a158.43328 158.43328 0 0 0-18.18624 17.69472 115.99872 115.99872 0 0 1-8.56064 8.84736 26.09152 26.09152 0 0 1-7.65952-0.98304 532.35712 532.35712 0 0 1-14.58176-5.89824 83.59936 83.59936 0 0 0-22.528-6.59456l-6.47168-0.45056c-13.35296 0-25.72288 5.24288-38.13376 16.87552a61.6448 61.6448 0 0 0-15.72864 27.40224c-2.58048 9.74848-2.58048 19.6608-0.08192 29.24544 2.08896 7.9872 5.40672 15.72864 9.87136 22.81472z m29.94176-42.02496a19.94752 19.94752 0 0 1 4.83328-8.35584c4.46464-4.01408 7.04512-4.79232 8.43776-4.95616l2.82624 0.2048c3.31776 0.57344 6.84032 1.67936 10.77248 3.39968 4.05504 1.76128 9.50272 3.97312 14.49984 5.89824 6.02112 2.62144 13.7216 4.096 22.85568 4.34176h1.14688c10.28096 0 20.23424-3.8912 27.81184-10.89536 4.096-3.76832 7.86432-7.70048 11.6736-12.04224a114.2784 114.2784 0 0 1 13.47584-13.1072c2.99008-2.49856 8.72448-5.48864 18.96448-5.48864 10.15808 0 15.64672 2.90816 18.47296 5.40672 4.62848 4.05504 8.92928 8.47872 12.86144 13.27104 3.72736 4.5056 7.94624 8.72448 12.57472 12.53376a40.83712 40.83712 0 0 0 53.41184-1.06496c3.72736-3.35872 7.5776-7.04512 11.50976-11.30496 4.17792-4.54656 9.0112-8.97024 14.21312-13.14816 5.89824-4.66944 13.88544-5.65248 19.57888-5.65248 10.24 0 16.01536 2.99008 19.16928 5.65248 4.7104 3.8912 9.05216 8.27392 13.02528 13.06624 3.39968 4.096 6.9632 7.94624 10.81344 11.59168 7.61856 7.20896 17.69472 11.264 28.18048 11.264h0.65536c9.58464-0.16384 16.95744-1.4336 22.44608-3.76832 5.98016-2.41664 11.14112-4.62848 16.34304-6.84032 3.15392-1.39264 6.63552-2.4576 9.87136-3.03104l2.70336-0.2048a14.25408 14.25408 0 0 1 7.41376 3.85024c4.7104 5.12 5.28384 7.90528 5.5296 9.09312a23.87968 23.87968 0 0 1 0.04096 9.78944 29.20448 29.20448 0 0 1-4.42368 10.36288 67.584 67.584 0 0 1-8.3968 10.0352 400.13824 400.13824 0 0 0-19.90656 18.14528c-8.8064 8.35584-17.65376 16.87552-26.37824 25.47712-10.32192 9.95328-20.84864 20.43904-31.82592 31.5392H395.34592a2379.81696 2379.81696 0 0 1-32.03072-31.86688 3199.7952 3199.7952 0 0 0-26.13248-25.31328 359.0144 359.0144 0 0 0-19.70176-17.77664 40.30464 40.30464 0 0 1-13.55776-21.21728 16.83456 16.83456 0 0 1 0.16384-8.88832z"  p-id="51417"></path></svg>
